<?xml version="1.0" encoding="UTF-8"?>
<svg id="Layer_1" data-name="Layer 1" xmlns="http://www.w3.org/2000/svg" viewBox="0 0 1000 1000">
  <defs>
    <style>
      .cls-1 {
        fill: #a70000;
      }

      .cls-2, .cls-3 {
        fill: #fff;
        stroke: #700;
        stroke-miterlimit: 10;
      }

      .cls-4 {
        fill: #700;
      }

      .cls-3 {
        stroke-width: 11px;
      }
    </style>
  </defs>
  <g id="Layer_1-2" data-name="Layer 1-2">
    <rect class="cls-1" width="1000" height="1000"/>
  </g>
  <g id="Layer_3" data-name="Layer 3">
    <path class="cls-4" d="M128.07,836.54V120.24h-59.69v-59.69h477.53v59.69h59.69v59.69h59.69v238.77h-59.69v59.69h-119.38v-59.69h59.69v-238.77h-59.69v-59.69h-238.77v417.84h119.38v59.69h-119.38v238.77h119.38v59.69H68.37v-59.69h59.7ZM486.22,478.39v59.69h-119.38v-59.69h119.38Z"/>
  </g>
  <g id="Layer_2" data-name="Layer 2">
    <path class="cls-2" d="M128.21,873.77V157.47h-59.69v-59.69h477.53v59.69h59.69v59.69h59.69v238.77h-59.69v59.69h-119.38v-59.69h59.69v-238.77h-59.69v-59.69h-238.77v417.84h119.38v59.69h-119.38v238.77h119.38v59.69H68.52v-59.69h59.69ZM486.36,515.62v59.69h-119.38v-59.69h119.38Z"/>
    <path class="cls-3" d="M611.51,324.64c111.83,0,193.3,15.8,244.43,47.36,51.11,31.58,76.68,76.07,76.68,133.47,0,33.88-10.6,65.59-31.75,95.15-21.17,29.57-56.73,53.54-106.64,71.9-49.93,18.38-117.63,27.55-203.09,27.55h-128.1v239.38h-77.99V324.63h226.46ZM601.93,390.94h-138.88v242.83h116.11c81.48,0,187.54-9.47,227.49-28.42,39.93-18.95,59.91-51.09,59.91-96.44,0-39.61-17.58-69.17-52.72-88.69-35.16-19.51-136.03-29.28-211.91-29.28h0Z"/>
  </g>
</svg>