<?xml version="1.0" encoding="UTF-8"?>
<svg xmlns="http://www.w3.org/2000/svg" viewBox="0 0 1000 1000">
  <defs>
    <style>
      .cls-1 {
        fill: #fff;
      }
    </style>
  </defs>
  <g id="Layer_1" data-name="Layer 1">
    <path class="cls-1" d="M990,10v770.63l-80.21,35.93c-36.22,16.22-65.44,48.22-80.39,87.96l-30.8,38.34H201.39l-30.8-38.34c-14.95-39.74-44.17-71.74-80.39-87.96l-80.21-35.93V10h980M1000,0H0v787.1l86.12,38.58c34.44,15.42,61.74,45.68,75.66,83.83l34.82,43.34h606.8l34.82-43.34c13.92-38.15,41.23-68.41,75.66-83.83l86.12-38.58V0h0Z"/>
    <path class="cls-1" d="M985,15v970H15V15h970M1000,0H0v1000h1000V0h0Z"/>
    <g>
      <path class="cls-1" d="M228.55,900.86c-23.88,0-43.3-19.43-43.3-43.3s19.43-43.3,43.3-43.3,43.3,19.43,43.3,43.3-19.43,43.3-43.3,43.3Z"/>
      <path class="cls-1" d="M228.55,817.25c22.26,0,40.3,18.04,40.3,40.3s-18.04,40.3-40.3,40.3-40.3-18.04-40.3-40.3,18.04-40.3,40.3-40.3M228.55,811.25c-25.53,0-46.3,20.77-46.3,46.3s20.77,46.3,46.3,46.3,46.3-20.77,46.3-46.3-20.77-46.3-46.3-46.3h0Z"/>
    </g>
    <g>
      <path class="cls-1" d="M348.48,900.86c-23.88,0-43.3-19.43-43.3-43.3s19.43-43.3,43.3-43.3,43.3,19.43,43.3,43.3-19.43,43.3-43.3,43.3Z"/>
      <path class="cls-1" d="M348.48,817.25c22.26,0,40.3,18.04,40.3,40.3s-18.04,40.3-40.3,40.3-40.3-18.04-40.3-40.3,18.04-40.3,40.3-40.3M348.48,811.25c-25.53,0-46.3,20.77-46.3,46.3s20.77,46.3,46.3,46.3,46.3-20.77,46.3-46.3-20.77-46.3-46.3-46.3h0Z"/>
    </g>
    <g>
      <path class="cls-1" d="M654.66,900.86c-23.88,0-43.3-19.43-43.3-43.3s19.43-43.3,43.3-43.3,43.3,19.43,43.3,43.3-19.43,43.3-43.3,43.3Z"/>
      <path class="cls-1" d="M654.66,817.25c22.26,0,40.3,18.04,40.3,40.3s-18.04,40.3-40.3,40.3-40.3-18.04-40.3-40.3,18.04-40.3,40.3-40.3M654.66,811.25c-25.53,0-46.3,20.77-46.3,46.3s20.77,46.3,46.3,46.3,46.3-20.77,46.3-46.3-20.77-46.3-46.3-46.3h0Z"/>
    </g>
    <g>
      <path class="cls-1" d="M774.59,900.86c-23.88,0-43.3-19.43-43.3-43.3s19.43-43.3,43.3-43.3,43.3,19.43,43.3,43.3-19.43,43.3-43.3,43.3Z"/>
      <path class="cls-1" d="M774.59,817.25c22.26,0,40.3,18.04,40.3,40.3s-18.04,40.3-40.3,40.3-40.3-18.04-40.3-40.3,18.04-40.3,40.3-40.3M774.59,811.25c-25.53,0-46.3,20.77-46.3,46.3s20.77,46.3,46.3,46.3,46.3-20.77,46.3-46.3-20.77-46.3-46.3-46.3h0Z"/>
    </g>
    <g>
      <path class="cls-1" d="M479.53,817.27h47.58c11.3,0,20.47,9.17,20.47,20.47v30.67c0,11.3-9.17,20.47-20.47,20.47h-47.58c-11.3,0-20.47-9.17-20.47-20.47v-30.67c0-11.3,9.17-20.47,20.47-20.47Z"/>
      <path class="cls-1" d="M527.11,820.27c9.65,0,17.47,7.82,17.47,17.47v30.67c0,9.65-7.82,17.47-17.47,17.47h-47.58c-9.65,0-17.47-7.82-17.47-17.47v-30.67c0-9.65,7.82-17.47,17.47-17.47h47.58M527.11,814.27h-47.58c-12.94,0-23.47,10.53-23.47,23.47v30.67c0,12.94,10.53,23.47,23.47,23.47h47.58c12.94,0,23.47-10.53,23.47-23.47v-30.67c0-12.94-10.53-23.47-23.47-23.47h0Z"/>
    </g>
  </g>
  <g id="Layer_2" data-name="Layer 2">
    <g>
      <path class="cls-1" d="M79.31,632.63V198.79h-36.15v-36.15h289.23v36.15h36.15v36.15h36.15v144.61h-36.15v36.15h-72.31v-36.15h36.15v-144.61h-36.15v-36.15h-144.61v253.07h72.31v36.15h-72.31v144.61h72.31v36.15H43.16v-36.15h36.15ZM296.23,415.71v36.15h-72.31v-36.15h72.31Z"/>
      <g>
        <path class="cls-1" d="M522.26,378.62c0,13.61-4.94,24.21-14.83,31.81-9.89,7.6-23.21,11.39-39.97,11.39-8.6,0-16.55-.64-23.85-1.93-7.31-1.29-13.4-3.08-18.27-5.37v-18.48c5.16,2.29,11.57,4.37,19.23,6.23,7.66,1.86,15.58,2.79,23.75,2.79,11.46,0,20.09-2.22,25.9-6.66,5.8-4.44,8.7-10.46,8.7-18.05,0-5.01-1.08-9.24-3.22-12.68-2.15-3.44-5.84-6.63-11.07-9.56-5.23-2.94-12.5-6.05-21.81-9.35-13.04-4.73-22.89-10.53-29.55-17.41s-9.99-16.26-9.99-28.15c0-8.17,2.08-15.15,6.23-20.95,4.15-5.8,9.92-10.28,17.3-13.43,7.38-3.15,15.87-4.73,25.47-4.73,8.45,0,16.19.79,23.21,2.36,7.02,1.58,13.4,3.65,19.13,6.23l-6.02,16.55c-5.3-2.29-11.07-4.22-17.3-5.8-6.23-1.57-12.72-2.36-19.45-2.36-9.6,0-16.84,2.04-21.71,6.12-4.87,4.08-7.31,9.49-7.31,16.23,0,5.16,1.07,9.46,3.22,12.89,2.15,3.44,5.66,6.52,10.53,9.24,4.87,2.72,11.46,5.66,19.77,8.81,9.03,3.3,16.66,6.84,22.89,10.64,6.23,3.8,10.96,8.35,14.18,13.65,3.22,5.3,4.84,11.96,4.84,19.99Z"/>
        <path class="cls-1" d="M649.48,419.67l-18.48-47.5h-60.82l-18.27,47.5h-19.56l59.96-154.09h17.41l59.75,154.09h-19.99ZM608.01,308.56c-.43-1.15-1.15-3.22-2.15-6.23-1-3.01-1.97-6.12-2.9-9.35-.93-3.22-1.69-5.69-2.26-7.41-1,4.44-2.15,8.78-3.44,13-1.29,4.23-2.36,7.56-3.22,9.99l-17.41,46.42h48.57l-17.19-46.42Z"/>
        <path class="cls-1" d="M690.53,419.67v-153.45h19.34v136.25h67.05v17.19h-86.39Z"/>
        <path class="cls-1" d="M870.84,419.67l-50.5-134.53h-.86c.43,4.44.79,10.42,1.07,17.94.29,7.52.43,15.37.43,23.53v93.06h-17.84v-153.45h28.58l47.28,125.72h.86l48.14-125.72h28.37v153.45h-19.13v-94.35c0-7.45.18-14.83.54-22.14.36-7.31.68-13.25.97-17.84h-.86l-51.15,134.32h-15.9Z"/>
      </g>
      <g>
        <path class="cls-1" d="M274.58,655.01v-151.17h-12.6v-12.6h100.78v12.6h12.6v12.6h12.6v50.39h-12.6v12.6h-25.2v-12.6h12.6v-50.39h-12.6v-12.6h-50.39v88.18h25.2v12.6h-25.2v50.39h25.2v12.6h-62.99v-12.6h12.6ZM350.17,579.42v12.6h-25.2v-12.6h25.2Z"/>
        <path class="cls-1" d="M425.76,655.01v-151.17h-12.6v-12.6h50.39v12.6h-12.6v151.17h12.6v12.6h-50.39v-12.6h12.6Z"/>
        <path class="cls-1" d="M501.34,655.01v-151.17h-12.6v-12.6h50.39v12.6h-12.6v151.17h62.99v-12.6h12.6v25.2h-113.38v-12.6h12.6ZM614.72,617.22v25.2h-12.6v-25.2h12.6Z"/>
        <path class="cls-1" d="M652.52,642.41v-25.2h-12.6v-75.59h12.6v-25.2h12.6v-12.6h25.2v12.6h-12.6v25.2h-12.6v75.59h12.6v25.2h12.6v12.6h-25.2v-12.6h-12.6ZM740.7,491.24v12.6h-50.39v-12.6h50.39ZM690.31,655.01h50.39v12.6h-50.39v-12.6ZM753.3,642.41v-25.2h12.6v-75.59h-12.6v-25.2h-12.6v-12.6h25.2v12.6h12.6v25.2h12.6v75.59h-12.6v25.2h-12.6v12.6h-25.2v-12.6h12.6Z"/>
        <path class="cls-1" d="M816.29,516.43v12.6h-12.6v-12.6h12.6ZM866.68,655.01v-151.17h-37.79v12.6h-12.6v-25.2h138.57v25.2h-12.6v-12.6h-50.39v151.17h25.2v12.6h-75.59v-12.6h25.2ZM942.27,516.43v12.6h-12.6v-12.6h12.6Z"/>
      </g>
    </g>
  </g>
</svg>