<svg xmlns="http://www.w3.org/2000/svg" viewBox="0 0 1000 1000">
    <path d="M0 0h1000v1000H0z" style="fill:#a70000"/>
    <path d="M128 837V120H68V61h478v59h60v60h59v239h-59v59H486v-59h60V180h-60v-60H247v418h120v60H247v239h120v59H68v-59zm358-359v60H367v-60z" style="fill:#700"/>
    <path d="M128 874V157H69V98h477v59h60v60h59v239h-59v60H486v-60h60V217h-60v-60H248v418h119v60H248v239h119v59H69v-59zm358-358v59H367v-59z" style="fill:#fff;stroke:#700;stroke-miterlimit:10"/>
    <path d="M612 325q167 0 244 47 77 48 77 133 0 51-32 96-32 44-107 72-74 27-203 27H463v239h-78V325zm-10 66H463v243h116c82 0 188-10 228-29q60-28 60-96 0-60-53-89c-35-19-136-29-212-29Z" style="fill:#fff;stroke:#700;stroke-miterlimit:10;stroke-width:11px"/>
</svg>
